[Header]
FileType HTR
DataType HTRS
FileVersion 1
NumSegments 22
NumFrames 4
DataFrameRate 24
EulerRotationOrder ZYX
CalibrationUnits mm
RotationUnits Degrees
GlobalAxisofGravity Y
BoneLengthAxis Y
ScaleFactor 1.0
[SegmentNames&Hierarchy]
reference	GLOBAL
Hips	reference
Spine	Hips
Spine1	Spine
Neck	Spine1
Head	Neck
LeftShoulder	Spine1
LeftArm	LeftShoulder
LeftForeArm	LeftArm
LeftHand	LeftForeArm
RightShoulder	Spine1
RightArm	RightShoulder
RightForeArm	RightArm
RightHand	RightForeArm
LeftUpLeg	Hips
LeftLeg	LeftUpLeg
LeftFoot	LeftLeg
LeftToeBase	LeftFoot
RightUpLeg	Hips
RightLeg	RightUpLeg
RightFoot	RightLeg
RightToeBase	RightFoot
[BasePosition]
reference	0	0	0	0	0	0	1
Hips	0	0	0	0	0	0	1
Spine	0	0	0	-0	-90	0	1
Spine1	0	0	0	0	0	0	1
Neck	0	0	0	82.64767223	-82.64767223	-90	1
Head	0	0	0	-0	-90	0	1
LeftShoulder	0	0	0	0	0	0	1
LeftArm	0	0	0	0	0	0	1
LeftForeArm	0	0	0	0	0	0	1
LeftHand	0	0	0	0	0	0	1
RightShoulder	0	0	0	0	-0	180	1
RightArm	0	0	0	0	-0	180	1
RightForeArm	0	0	0	0	-0	180	1
RightHand	0	0	0	0	-0	180	1
LeftUpLeg	0	0	0	-0	90	0	1
LeftLeg	0	0	0	-0	90	0	1
LeftFoot	0	0	0	-23.42853957	23.42853957	-90	1
LeftToeBase	0	0	0	0	-0	-90	1
RightUpLeg	0	0	0	-0	90	0	1
RightLeg	0	0	0	-0	90	0	1
RightFoot	0	0	0	-23.42853957	23.42853957	-90	1
RightToeBase	0	0	0	0	-0	-90	1
[reference]
19	0	0	0	0	-0	0	1.0
20	0	0	0	0	-0	0	1.0
21	0	0	0	0	-0	0	1.0
22	0	0	0	0	-0	0	1.0
[Hips]
19	4.738190651	-4.129750252	8.247941971	1.662587643	-1.087245822	-99.93157196	1.0
20	4.715839863	-4.415707111	8.35103035	0.6418530941	-2.305593967	-98.46723938	1.0
21	4.69092989	-4.617030144	8.431850433	1.029832363	-2.38253355	-97.07437897	1.0
22	4.601956844	-5.016979218	8.566941261	1.082391262	-2.135226727	-97.1674881	1.0
[Spine]
19	0	0	0.7457100153	25.05685806	87.55562592	32.45223236	1.0
20	0	0	0.7457100153	-41.21469498	88.89028168	-34.88979721	1.0
21	0	0	0.7457100153	-74.76931763	87.68954468	-67.83219147	1.0
22	0	0	0.7457100153	-79.31985474	87.33273315	-71.95838928	1.0
[Spine1]
19	0	0	2.140589952	6.851271629	-0.2249572277	0.330352813	1.0
20	0	0	2.140589952	5.289715767	-0.02670991421	-0.2496305406	1.0
21	0	0	2.140589952	5.417098999	0.8055605888	-0.6905190945	1.0
22	0	0	2.140589952	4.552886009	0.2336837053	-0.8518717289	1.0
[Neck]
19	0	0	2.32246995	-51.51695251	97.24989319	-36.03238678	1.0
20	0	0	2.32246995	-50.83026505	96.36749268	-38.56494904	1.0
21	0	0	2.32246995	-60.15604401	95.25385284	-48.12687683	1.0
22	0	0	2.32246995	-59.08055496	95.20026398	-49.16780472	1.0
[Head]
19	0	-0.1818799973	1.409579992	60.98419952	94.35133362	64.3390274	1.0
20	0	-0.1818799973	1.409579992	53.44549561	94.16799927	57.42816162	1.0
21	0	-0.1818799973	1.409579992	40.61988831	94.44454956	44.70040894	1.0
22	0	-0.1818799973	1.409579992	38.5799675	94.64222717	42.51895523	1.0
[LeftShoulder]
19	0.3668199778	0.02662999928	1.946700096	-16.01524734	3.662599325	-10.55631447	1.0
20	0.3668199778	0.02662999928	1.946700096	-15.43200493	3.012145758	-11.47363377	1.0
21	0.3668199778	0.02662999928	1.946700096	-17.00034904	0.4635994136	-10.62870312	1.0
22	0.3668199778	0.02662999928	1.946700096	-17.71702766	0.08819850534	-11.16313744	1.0
[LeftArm]
19	1.140689969	0	0	65.86562347	70.3403244	16.39883041	1.0
20	1.140689969	0	0	66.7444458	69.40503693	17.40545654	1.0
21	1.140689969	0	0	69.38555908	70.53309631	19.73535728	1.0
22	1.140689969	0	0	66.85123444	69.91650391	17.66226959	1.0
[LeftForeArm]
19	2.749800205	0	0	19.99618149	-12.5064621	-135.911438	1.0
20	2.749800205	0	0	20.27951813	-13.09459114	-135.5205231	1.0
21	2.749800205	0	0	20.2831955	-12.61580181	-135.6694794	1.0
22	2.749800205	0	0	20.22143936	-12.01593494	-135.6930389	1.0
[LeftHand]
19	2.295179844	0	0	-10.37056923	0.365498662	-21.61963272	1.0
20	2.295179844	0	0	-10.79981327	-1.55077529	-21.09280396	1.0
21	2.295179844	0	0	-9.709558487	-1.985886097	-21.34261703	1.0
22	2.295179844	0	0	-8.224520683	-2.867361546	-21.53177452	1.0
[RightShoulder]
19	-0.3601199985	0.02662999928	1.946700096	-5.006989479	6.18915081	-176.6630554	1.0
20	-0.3601199985	0.02662999928	1.946700096	-4.928108692	4.60322237	-176.1201019	1.0
21	-0.3601199985	0.02662999928	1.946700096	-6.452018738	4.815069199	-177.4063416	1.0
22	-0.3601199985	0.02662999928	1.946700096	-6.80783844	4.895159245	-177.7457886	1.0
[RightArm]
19	-1.140689969	0	0	-130.6150818	-104.002533	6.196138382	1.0
20	-1.140689969	0	0	-121.445755	-104.5256805	-1.097680926	1.0
21	-1.140689969	0	0	-116.8126221	-103.9604416	-3.956771851	1.0
22	-1.140689969	0	0	-118.7943039	-104.6589203	-1.689267159	1.0
[RightForeArm]
19	-2.749800205	0	0	44.6309166	21.43055153	-47.84112549	1.0
20	-2.749800205	0	0	46.89776611	23.3019104	-46.71543121	1.0
21	-2.749800205	0	0	48.63448715	23.79338455	-45.75874329	1.0
22	-2.749800205	0	0	51.03844452	24.70224762	-44.88083649	1.0
[RightHand]
19	-2.295179844	0	0	1.841339827	19.33720589	-159.7887115	1.0
20	-2.295179844	0	0	-0.8563438654	18.83259964	-160.0270691	1.0
21	-2.295179844	0	0	-1.089540243	18.67625999	-159.9144897	1.0
22	-2.295179844	0	0	-1.357117653	19.34015656	-159.84552	1.0
[LeftUpLeg]
19	0.9094099998	0	0	-23.19881058	-104.1665573	13.19322586	1.0
20	0.9094099998	0	0	-6.420043945	-103.7906799	-1.447662711	1.0
21	0.9094099998	0	0	6.274505615	-104.2877808	-14.23606873	1.0
22	0.9094099998	0	0	12.78722668	-105.9674225	-18.24261475	1.0
[LeftLeg]
19	0	0	-4.498080254	27.57678223	-75.90817261	8.675865173	1.0
20	0	0	-4.498080254	29.59425926	-80.08229065	1.142490864	1.0
21	0	0	-4.498080254	36.45743561	-83.03096008	-9.823885918	1.0
22	0	0	-4.498080254	-57.39761734	-83.7035141	75.87661743	1.0
[LeftFoot]
19	0	0	-3.729400158	-57.02451706	1.556520104	113.1566772	1.0
20	0	0	-3.729400158	-51.95589066	10.91439819	101.2753983	1.0
21	0	0	-3.729400158	-45.98989487	10.61971855	100.5982437	1.0
22	0	0	-3.729400158	-42.32062531	-13.52403927	102.005661	1.0
[LeftToeBase]
19	0	-1.364109993	-0.5911099911	-9.999999975e-007	9.999999975e-007	9.999999975e-007	1.0
20	0	-1.364109993	-0.5911099911	-9.999999975e-007	9.999999975e-007	9.999999975e-007	1.0
21	0	-1.364109993	-0.5911099911	-9.999999975e-007	9.999999975e-007	9.999999975e-007	1.0
22	0	-1.364109993	-0.5911099911	-9.999999975e-007	9.999999975e-007	9.999999975e-007	1.0
[RightUpLeg]
19	-0.9094099998	0	0	111.2462692	-83.21229553	-119.0987167	1.0
20	-0.9094099998	0	0	83.38721466	-82.10176086	-88.96609497	1.0
21	-0.9094099998	0	0	71.90486145	-81.78033447	-76.49475098	1.0
22	-0.9094099998	0	0	50.71642303	-81.15959167	-53.16482544	1.0
[RightLeg]
19	0	0	-4.498080254	31.21977425	-83.12495422	-1.202305079	1.0
20	0	0	-4.498080254	38.63339233	-81.89607239	-11.94515228	1.0
21	0	0	-4.498080254	46.66113663	-81.49002838	-23.1350193	1.0
22	0	0	-4.498080254	57.13124847	-81.10015869	-38.83206177	1.0
[RightFoot]
19	0	0	-3.729400158	-57.89846039	-18.38877487	105.0427017	1.0
20	0	0	-3.729400158	-56.98314667	-19.38000488	110.4494476	1.0
21	0	0	-3.729400158	-54.81939697	-20.6432476	112.6108551	1.0
22	0	0	-3.729400158	-49.39888763	-23.76861572	117.6790237	1.0
[RightToeBase]
19	0	-1.364109993	-0.5911099911	-9.999999975e-007	0	3.000000106e-006	1.0
20	0	-1.364109993	-0.5911099911	-9.999999975e-007	0	3.000000106e-006	1.0
21	0	-1.364109993	-0.5911099911	-9.999999975e-007	0	3.000000106e-006	1.0
22	0	-1.364109993	-0.5911099911	-9.999999975e-007	0	3.000000106e-006	1.0
[EndOfFile]
